<svg width="242" height="242" viewBox="0 0 242 242" fill="none" xmlns="http://www.w3.org/2000/svg">
<g clip-path="url(#clip0_462_76)">
<circle cx="121" cy="121" r="118.5" fill="#005784" stroke="white" stroke-width="5"/>
<path d="M194.691 56.2695V56.2803H194.956V61.9209H163.627V100.39H208.317V106.03H163.627V144.693H212.187V150.333H163.589V152.882C163.589 159.269 162.088 164.886 159.138 169.804L159.136 169.808C156.212 174.701 152.077 178.583 146.66 181.458C141.289 184.276 134.908 185.73 127.438 185.73C119.969 185.73 113.589 184.276 108.218 181.458C102.801 178.583 98.6473 174.7 95.6904 169.804C92.7729 164.887 91.2881 159.27 91.2881 152.882V107.59L86.3789 106.923L65.0371 183.982H56.416L30.5918 89.54H37.6123L57.9131 168.652L58.3945 170.531H63.2363L63.7246 168.663L84.4062 89.54H98.3301V151.911C98.3301 157.146 99.4859 161.899 101.857 166.104L101.861 166.111C104.236 170.286 107.624 173.571 111.96 175.952L111.981 175.964C116.399 178.334 121.583 179.466 127.438 179.466C133.295 179.466 138.478 178.335 142.896 175.964L142.91 175.956C147.282 173.575 150.677 170.286 153.023 166.098L153.022 166.097C155.392 161.894 156.547 157.143 156.547 151.911V89.54H156.548V61.9102H125.4V56.2695H194.691Z" fill="white" stroke="white" stroke-width="5"/>
<path d="M127.143 110.081C128.447 112.736 130.518 116.738 133.04 120.843C135.86 125.433 138.517 130.023 140.467 134.366C142.431 138.742 143.575 142.651 143.575 145.917C143.575 157.776 135.671 166.587 126.906 166.587L126.905 166.59C118.14 166.583 110.246 157.776 110.246 145.922C110.246 140.317 112.592 134.344 120.29 122.364C122.811 118.441 124.871 114.623 126.303 111.782C126.612 111.168 126.892 110.597 127.143 110.081Z" fill="black"/>
<path d="M127.143 110.081C128.447 112.736 130.518 116.738 133.04 120.843C135.86 125.433 138.517 130.023 140.467 134.366C142.431 138.742 143.575 142.651 143.575 145.917C143.575 157.776 135.671 166.587 126.906 166.587L126.905 166.59C118.14 166.583 110.246 157.776 110.246 145.922C110.246 140.317 112.592 134.344 120.29 122.364C122.811 118.441 124.871 114.623 126.303 111.782C126.612 111.168 126.892 110.597 127.143 110.081Z" fill="#3EA34B"/>
<path d="M127.143 110.081C128.447 112.736 130.518 116.738 133.04 120.843C135.86 125.433 138.517 130.023 140.467 134.366C142.431 138.742 143.575 142.651 143.575 145.917C143.575 157.776 135.671 166.587 126.906 166.587L126.905 166.59C118.14 166.583 110.246 157.776 110.246 145.922C110.246 140.317 112.592 134.344 120.29 122.364C122.811 118.441 124.871 114.623 126.303 111.782C126.612 111.168 126.892 110.597 127.143 110.081Z" stroke="white" stroke-width="5"/>
<mask id="path-4-inside-1_462_76" fill="white">
<path d="M115.154 151.702C115.099 151.231 115.44 150.803 115.91 150.747C116.379 150.692 116.806 151.034 116.861 151.505C117.305 155.408 120.748 159.799 125.173 160.125C125.646 160.159 126 160.574 125.966 161.045C125.932 161.498 125.557 161.845 125.113 161.845C125.092 161.845 125.07 161.845 125.049 161.841C119.775 161.456 115.679 156.281 115.159 151.697L115.154 151.702Z"/>
</mask>
<path d="M115.154 151.702C115.099 151.231 115.44 150.803 115.91 150.747C116.379 150.692 116.806 151.034 116.861 151.505C117.305 155.408 120.748 159.799 125.173 160.125C125.646 160.159 126 160.574 125.966 161.045C125.932 161.498 125.557 161.845 125.113 161.845C125.092 161.845 125.07 161.845 125.049 161.841C119.775 161.456 115.679 156.281 115.159 151.697L115.154 151.702Z" fill="white"/>
<path d="M115.154 151.702L110.189 152.287L111.39 162.486L118.678 155.249L115.154 151.702ZM115.91 150.747L116.498 155.712L116.498 155.712L115.91 150.747ZM116.861 151.505L121.829 150.94L121.828 150.93L121.827 150.92L116.861 151.505ZM125.173 160.125L124.806 165.111L124.812 165.112L125.173 160.125ZM125.966 161.045L130.952 161.42L130.953 161.406L125.966 161.045ZM125.049 161.841L126.032 156.939L125.725 156.877L125.413 156.854L125.049 161.841ZM115.159 151.697L120.127 151.133L118.962 140.874L111.635 148.15L115.159 151.697ZM115.154 151.702L120.12 151.117C120.391 153.413 118.743 155.446 116.498 155.712L115.91 150.747L115.321 145.782C112.137 146.159 109.807 149.048 110.189 152.287L115.154 151.702ZM115.91 150.747L116.498 155.712C114.169 155.988 112.157 154.308 111.895 152.09L116.861 151.505L121.827 150.92C121.454 147.76 118.589 145.395 115.321 145.782L115.91 150.747ZM116.861 151.505L111.893 152.069C112.245 155.166 113.721 158.191 115.814 160.508C117.923 162.843 121.013 164.832 124.806 165.111L125.173 160.125L125.539 155.138C124.908 155.092 124.064 154.723 123.234 153.805C122.389 152.869 121.921 151.747 121.829 150.94L116.861 151.505ZM125.173 160.125L124.812 165.112C122.502 164.945 120.816 162.937 120.979 160.683L125.966 161.045L130.953 161.406C131.185 158.211 128.791 155.373 125.533 155.138L125.173 160.125ZM125.966 161.045L120.98 160.67C121.14 158.543 122.912 156.845 125.113 156.845V161.845V166.845C128.201 166.845 130.724 164.454 130.952 161.42L125.966 161.045ZM125.113 161.845V156.845C125.081 156.845 125.196 156.844 125.331 156.851C125.483 156.858 125.731 156.878 126.032 156.939L125.049 161.841L124.065 166.743C124.388 166.808 124.658 166.83 124.831 166.838C124.918 166.843 124.989 166.844 125.034 166.845C125.076 166.845 125.113 166.845 125.113 166.845V161.845ZM125.049 161.841L125.413 156.854C124.338 156.776 123.116 156.179 122.014 154.972C120.893 153.745 120.255 152.263 120.127 151.133L115.159 151.697L110.191 152.262C110.583 155.716 112.253 159.113 114.629 161.715C117.023 164.337 120.486 166.521 124.685 166.828L125.049 161.841ZM115.159 151.697L111.635 148.15L111.631 148.154L115.154 151.702L118.678 155.249L118.682 155.245L115.159 151.697Z" fill="white" mask="url(#path-4-inside-1_462_76)"/>
</g>
<defs>
<clipPath id="clip0_462_76">
<rect width="242" height="242" fill="white"/>
</clipPath>
</defs>
</svg>
